<svg width="557" height="344" viewBox="0 0 557 344" fill="none" xmlns="http://www.w3.org/2000/svg">
    <path d="M156.992 59H40.0077C17.9121 59 0 76.9121 0 99.0077V215.992C0 238.088 17.9121 256 40.0077 256H156.992C179.088 256 197 238.088 197 215.992V99.0077C197 76.9121 179.088 59 156.992 59Z" fill="#D9D9D9"/>
    <path d="M234.583 199L272.635 100.399H290.966L328.879 199H310.27L300.965 174.836H262.636L253.331 199H234.583ZM281.801 120.814L268.33 158.726H295.271L281.801 120.814ZM332.191 184.696L344.412 175.669C348.856 182.613 354.504 186.085 361.355 186.085C364.688 186.085 367.28 185.529 369.132 184.418C371.076 183.307 372.048 181.826 372.048 179.974C372.048 177.845 371.03 176.132 368.993 174.836C366.956 173.54 362.883 171.873 356.772 169.836C349.18 167.337 343.579 164.42 339.968 161.087C336.358 157.662 334.552 153.171 334.552 147.616C334.552 141.506 337.145 136.46 342.329 132.479C347.607 128.498 354.087 126.508 361.772 126.508C367.512 126.508 372.65 127.804 377.187 130.396C381.816 132.896 385.288 136.275 387.602 140.534L375.52 149.283C372.187 143.728 367.512 140.951 361.494 140.951C358.624 140.951 356.217 141.552 354.272 142.756C352.421 143.959 351.495 145.533 351.495 147.478C351.495 149.237 352.513 150.764 354.55 152.06C356.68 153.357 360.568 155.023 366.216 157.06C374.085 160.023 379.825 163.032 383.436 166.087C387.139 169.142 388.991 173.632 388.991 179.558C388.991 185.575 386.399 190.621 381.214 194.695C376.122 198.676 369.502 200.666 361.355 200.666C354.967 200.666 349.134 199.278 343.857 196.5C338.672 193.63 334.784 189.695 332.191 184.696ZM398.393 179.835C398.393 174.466 400.338 170.022 404.226 166.503C408.207 162.893 413.947 160.347 421.446 158.865L441.861 154.838V154.005C441.861 150.116 440.565 147.2 437.973 145.256C435.473 143.219 432.047 142.2 427.696 142.2C420.197 142.2 413.947 145.117 408.948 150.949L399.504 139.423C406.726 130.813 416.54 126.508 428.946 126.508C438.389 126.508 445.796 129.007 451.166 134.007C456.628 138.914 459.359 145.626 459.359 154.144V199H442.694V189.418C438.435 196.917 431.445 200.666 421.724 200.666C414.966 200.666 409.364 198.722 404.92 194.834C400.569 190.853 398.393 185.853 398.393 179.835ZM415.753 178.724C415.753 181.131 416.632 183.076 418.391 184.557C420.15 186.038 422.465 186.779 425.335 186.779C430.149 186.779 434.13 185.159 437.278 181.918C440.519 178.678 442.139 174.743 442.139 170.114V167.059L425.613 170.253C419.039 171.457 415.753 174.28 415.753 178.724ZM506.456 200.666C497.105 200.666 489.236 197.195 482.847 190.251C476.459 183.215 473.265 174.327 473.265 163.587C473.265 152.94 476.413 144.098 482.709 137.062C489.097 130.026 497.105 126.508 506.734 126.508C511.085 126.508 515.205 127.48 519.094 129.424C523.075 131.368 526.13 133.96 528.259 137.201V100.399H546.313V199H529.37V188.862C527.241 192.565 523.954 195.482 519.51 197.611C515.159 199.648 510.807 200.666 506.456 200.666ZM510.206 142.617C505.021 142.617 500.577 144.561 496.874 148.45C493.263 152.338 491.458 157.338 491.458 163.448C491.458 169.651 493.263 174.743 496.874 178.724C500.577 182.613 505.021 184.557 510.206 184.557C515.483 184.557 519.927 182.613 523.538 178.724C527.148 174.836 528.954 169.744 528.954 163.448C528.954 157.245 527.148 152.246 523.538 148.45C519.927 144.561 515.483 142.617 510.206 142.617Z" fill="white"/>
    <path d="M180.26 215.968V218H121.332C120.655 208.687 119.215 198.696 117.014 188.028C105.161 199.881 93.3073 209.872 81.454 218H22.272C21.0867 211.057 20.494 201.913 20.494 190.568C20.494 179.053 22.1873 167.539 25.574 156.024C37.766 152.468 49.45 146.457 60.626 137.99C71.9713 129.523 80.184 120.379 85.264 110.558C80.5227 103.107 75.6967 96.588 70.786 91H155.114C171.878 127.745 180.26 169.401 180.26 215.968ZM112.442 169.486C108.209 154.923 102.451 140.699 95.17 126.814C87.2113 150.182 82.6393 172.28 81.454 193.108C93.9847 186.335 104.314 178.461 112.442 169.486Z" fill="#6366F1"/>
    </svg>